<?xml version="1.0" encoding="UTF-8" standalone="no"?>
<!-- Created with Inkscape (http://www.inkscape.org/) -->

<svg
   xmlns:dc="http://purl.org/dc/elements/1.1/"
   xmlns:cc="http://creativecommons.org/ns#"
   xmlns:rdf="http://www.w3.org/1999/02/22-rdf-syntax-ns#"
   xmlns:svg="http://www.w3.org/2000/svg"
   xmlns="http://www.w3.org/2000/svg"
   xmlns:xlink="http://www.w3.org/1999/xlink"
   xmlns:sodipodi="http://sodipodi.sourceforge.net/DTD/sodipodi-0.dtd"
   xmlns:inkscape="http://www.inkscape.org/namespaces/inkscape"
   width="210mm"
   height="297mm"
   viewBox="0 0 744.09448819 1052.3622047"
   id="svg2"
   version="1.1"
   inkscape:version="0.91 r13725"
   sodipodi:docname="luonnostelua.svg">
  <defs
     id="defs4">
    <linearGradient
       id="linearGradient4181"
       inkscape:collect="always">
      <stop
         id="stop4183"
         offset="0"
         style="stop-color:#666666;stop-opacity:1" />
      <stop
         id="stop4185"
         offset="1"
         style="stop-color:#000000;stop-opacity:1" />
    </linearGradient>
    <linearGradient
       inkscape:collect="always"
       id="linearGradient4169">
      <stop
         style="stop-color:#2b0000;stop-opacity:1"
         offset="0"
         id="stop4171" />
      <stop
         style="stop-color:#d40000;stop-opacity:1"
         offset="1"
         id="stop4173" />
    </linearGradient>
    <linearGradient
       inkscape:collect="always"
       id="linearGradient4277">
      <stop
         style="stop-color:#c87137;stop-opacity:1"
         offset="0"
         id="stop4279" />
      <stop
         style="stop-color:#502d16;stop-opacity:1"
         offset="1"
         id="stop4281" />
    </linearGradient>
    <linearGradient
       inkscape:collect="always"
       id="linearGradient4267">
      <stop
         style="stop-color:#784421;stop-opacity:1"
         offset="0"
         id="stop4269" />
      <stop
         style="stop-color:#28170b;stop-opacity:1"
         offset="1"
         id="stop4271" />
    </linearGradient>
    <linearGradient
       inkscape:collect="always"
       id="linearGradient4253">
      <stop
         style="stop-color:#d38d5f;stop-opacity:1"
         offset="0"
         id="stop4255" />
      <stop
         style="stop-color:#784421;stop-opacity:1"
         offset="1"
         id="stop4257" />
    </linearGradient>
    <linearGradient
       inkscape:collect="always"
       id="linearGradient3377">
      <stop
         style="stop-color:#a05a2c;stop-opacity:1"
         offset="0"
         id="stop3379" />
      <stop
         style="stop-color:#502d16;stop-opacity:1"
         offset="1"
         id="stop3381" />
    </linearGradient>
    <linearGradient
       inkscape:collect="always"
       id="linearGradient3366">
      <stop
         style="stop-color:#d35f5f;stop-opacity:1"
         offset="0"
         id="stop3368" />
      <stop
         style="stop-color:#501616;stop-opacity:1"
         offset="1"
         id="stop3370" />
    </linearGradient>
    <inkscape:perspective
       sodipodi:type="inkscape:persp3d"
       inkscape:vp_x="0 : 526.1811 : 1"
       inkscape:vp_y="0 : 1000 : 0"
       inkscape:vp_z="744.09449 : 526.1811 : 1"
       inkscape:persp3d-origin="372.04724 : 350.7874 : 1"
       id="perspective3342" />
    <radialGradient
       inkscape:collect="always"
       xlink:href="#linearGradient3366"
       id="radialGradient3372"
       cx="533.60864"
       cy="498.31097"
       fx="533.60864"
       fy="498.31097"
       r="188.83471"
       gradientTransform="matrix(-0.65728534,-0.42005491,0.39918128,-0.62462398,562.44922,805.45078)"
       gradientUnits="userSpaceOnUse" />
    <radialGradient
       inkscape:collect="always"
       xlink:href="#linearGradient3377"
       id="radialGradient3383"
       cx="438.57144"
       cy="150.8037"
       fx="438.57144"
       fy="150.8037"
       r="82.322357"
       gradientTransform="matrix(-1.5369301,-0.01766882,0.00435341,-0.37868302,1043.7374,206.07969)"
       gradientUnits="userSpaceOnUse" />
    <linearGradient
       inkscape:collect="always"
       xlink:href="#linearGradient4253"
       id="linearGradient4259"
       x1="612.50006"
       y1="188.07648"
       x2="483.21429"
       y2="295.93362"
       gradientUnits="userSpaceOnUse"
       gradientTransform="translate(58.571429,-8.5714287)" />
    <radialGradient
       inkscape:collect="always"
       xlink:href="#linearGradient4267"
       id="radialGradient4275"
       cx="716.75757"
       cy="358.93622"
       fx="716.75757"
       fy="358.93622"
       r="139.37245"
       gradientTransform="matrix(-0.79802538,-1.0868058,0.88055043,-0.6465729,982.35781,1284.8454)"
       gradientUnits="userSpaceOnUse" />
    <radialGradient
       inkscape:collect="always"
       xlink:href="#linearGradient4277"
       id="radialGradient4283"
       cx="623.05688"
       cy="57.373825"
       fx="623.05688"
       fy="57.373825"
       r="101.2073"
       gradientTransform="matrix(-1.2350881,0.01411522,-0.00219401,-0.19189384,1448.2274,137.43443)"
       gradientUnits="userSpaceOnUse" />
    <linearGradient
       inkscape:collect="always"
       xlink:href="#linearGradient4169"
       id="linearGradient4175"
       x1="157.5838"
       y1="650.32147"
       x2="157.5838"
       y2="469.50418"
       gradientUnits="userSpaceOnUse"
       gradientTransform="matrix(0.7230341,0,0,0.7230341,0.14691868,117.56122)" />
    <linearGradient
       inkscape:collect="always"
       xlink:href="#linearGradient4181"
       id="linearGradient4179"
       gradientUnits="userSpaceOnUse"
       gradientTransform="matrix(0.7230341,0,0,0.7230341,178.94392,117.56122)"
       x1="157.5838"
       y1="650.32147"
       x2="157.5838"
       y2="469.50418" />
  </defs>
  <sodipodi:namedview
     id="base"
     pagecolor="#ffffff"
     bordercolor="#666666"
     borderopacity="1.0"
     inkscape:pageopacity="0.0"
     inkscape:pageshadow="2"
     inkscape:zoom="0.35"
     inkscape:cx="2713.1873"
     inkscape:cy="1175.0834"
     inkscape:document-units="px"
     inkscape:current-layer="layer1"
     showgrid="false"
     inkscape:window-width="1280"
     inkscape:window-height="748"
     inkscape:window-x="-4"
     inkscape:window-y="26"
     inkscape:window-maximized="1" />
  <metadata
     id="metadata7">
    <rdf:RDF>
      <cc:Work
         rdf:about="">
        <dc:format>image/svg+xml</dc:format>
        <dc:type
           rdf:resource="http://purl.org/dc/dcmitype/StillImage" />
        <dc:title />
      </cc:Work>
    </rdf:RDF>
  </metadata>
  <g
     inkscape:label="Layer 1"
     inkscape:groupmode="layer"
     id="layer1">
    <g
       id="g4339">
      <rect
         y="191.92632"
         x="49.850605"
         height="110.21075"
         width="9.609705"
         id="rect3336"
         style="fill:#784421;stroke:#000000;stroke-width:0.7860052" />
      <path
         sodipodi:nodetypes="ccscc"
         inkscape:connector-curvature="0"
         id="path3338"
         d="m 54.926949,137.64788 0,55.65512 -3.886252,-0.07 c -3.883186,-0.07 -7.289219,-6.25538 -7.399693,-10.22968 0,-12.89546 11.285945,-23.08859 11.285945,-45.35543 z"
         style="fill:#333333;fill-rule:evenodd;stroke:#000000;stroke-width:0.79446912px;stroke-linecap:butt;stroke-linejoin:miter;stroke-opacity:1" />
      <path
         style="fill:#808080;fill-rule:evenodd;stroke:#000000;stroke-width:0.79446912px;stroke-linecap:butt;stroke-linejoin:miter;stroke-opacity:1"
         d="m 54.908875,137.64788 0,55.65512 3.886252,-0.07 c 3.883187,-0.07 7.289219,-6.25538 7.399687,-10.22968 0,-12.89546 -11.285939,-23.08859 -11.285939,-45.35543 z"
         id="path3340"
         inkscape:connector-curvature="0"
         sodipodi:nodetypes="ccscc" />
      <path
         sodipodi:nodetypes="ccccc"
         inkscape:connector-curvature="0"
         id="rect3342"
         d="m 59.4784,261.48741 11.907339,12.47975 0,34.13323 L 59.4784,295.62064 Z"
         style="fill:#c87137;stroke:#000000;stroke-width:0.4537431" />
      <path
         style="fill:#502d16;stroke:#000000;stroke-width:0.44099113"
         d="m 49.836858,261.47829 -11.243061,12.48463 0,34.14659 11.243061,-12.48463 z"
         id="path3345"
         inkscape:connector-curvature="0"
         sodipodi:nodetypes="ccccc" />
    </g>
    <g
       id="g4185"
       inkscape:export-xdpi="89.751747"
       inkscape:export-ydpi="89.751747"
       transform="translate(-72.857144,-42.857143)">
      <path
         inkscape:connector-curvature="0"
         id="rect3358"
         d="m 292.57138,152.06294 c 50.85931,96.17908 -114.87416,50.82376 -76.94738,192.36844 19.03423,50.2639 55.16927,45.54381 113.85643,45.52819 58.68641,0.0157 94.8211,4.73534 113.85519,-45.52819 C 481.2624,202.8867 315.52893,248.24202 366.38824,152.06294 l -36.62513,0 -0.5666,0 -36.62513,0 z"
         style="fill:url(#radialGradient3372);fill-opacity:1;stroke:#000000;stroke-width:1.5;stroke-miterlimit:4;stroke-dasharray:none" />
      <rect
         ry="7.6947098"
         y="123.84938"
         x="275.33392"
         height="32.702515"
         width="103.87858"
         id="rect3361"
         style="fill:url(#radialGradient3383);fill-opacity:1;stroke:#000000;stroke-width:1.5;stroke-miterlimit:4;stroke-dasharray:none" />
    </g>
    <g
       id="g4285"
       transform="translate(-87.142858,-30)"
       inkscape:export-xdpi="89.751747"
       inkscape:export-ydpi="89.751747">
      <path
         sodipodi:nodetypes="ccccccc"
         inkscape:connector-curvature="0"
         id="path4249"
         d="m 551.07144,159.50505 c 12.65783,-12.20115 18.06697,-11.69205 47.85714,-27.50001 8.06157,-4.91461 26.87238,9.1343 42.14285,3.21429 49.06277,-18.07683 35.61829,8.13748 70.35716,0.71429 20.18753,-3.27345 25.95238,20.23809 38.92857,30.35714 l -84.28572,-12.85714 z"
         style="fill:url(#radialGradient4283);fill-opacity:1;fill-rule:evenodd;stroke:#000000;stroke-width:1px;stroke-linecap:butt;stroke-linejoin:miter;stroke-opacity:1" />
      <path
         sodipodi:nodetypes="ccccccc"
         inkscape:connector-curvature="0"
         id="path4247"
         d="m 551.42858,160.21933 c 34.23577,0.15711 75.59163,-3.56945 80,12.85715 -453.80953,279.60676 421.66662,318.11504 48.57143,-4.28572 17.08599,-11.68208 46.62839,-2.60348 71.42857,-1.42857 -23.13279,-24.72917 -42.175,-23.06359 -57.85714,-25.71429 -21.66667,13.85163 -43.69048,-13.51649 -65,-2.14285 -14.26868,14.26265 -55.27052,-1.97663 -77.14286,20.71428 z"
         style="fill:url(#radialGradient4275);fill-opacity:1;fill-rule:evenodd;stroke:#000000;stroke-width:1px;stroke-linecap:butt;stroke-linejoin:miter;stroke-opacity:1" />
      <path
         sodipodi:nodetypes="ccccccccccc"
         inkscape:connector-curvature="0"
         id="path4251"
         d="m 626.07144,166.29076 c -2.64494,0.0673 -10.12386,-0.96201 -10,4.64286 -18.69419,44.70052 -57.97619,79.64285 -88.21429,118.57142 l 24.64286,13.57144 c 22.34134,-42.38694 47.04816,-77.67742 67.02402,-127.16081 1.91928,41.07741 -3.29116,80.72625 19.40455,121.80366 l 9.64286,-0.71428 c -17.77697,-40.6722 -29.66108,-81.34439 -20.96619,-122.01659 30.242,-2.08153 47.98105,-4.15919 62.7519,1.65944 2.09305,-3.70555 4.59593,-7.39592 -2.14285,-11.42857 -18.03205,-2.32509 -38.06606,-2.64822 -62.14286,1.07143 z"
         style="fill:url(#linearGradient4259);fill-opacity:1;fill-rule:evenodd;stroke:#000000;stroke-width:1px;stroke-linecap:butt;stroke-linejoin:miter;stroke-opacity:1" />
    </g>
    <rect
       style="fill:url(#linearGradient4175);fill-opacity:1;stroke:#000000;stroke-width:2.16910219;stroke-miterlimit:4;stroke-dasharray:none"
       id="rect4167"
       width="140.23195"
       height="140.23195"
       x="49.082031"
       y="451.91614"
       inkscape:export-xdpi="20.224567"
       inkscape:export-ydpi="20.224567" />
    <rect
       y="451.91614"
       x="227.87903"
       height="140.23195"
       width="140.23195"
       id="rect4177"
       style="fill:url(#linearGradient4179);fill-opacity:1;stroke:#000000;stroke-width:2.16910219;stroke-miterlimit:4;stroke-dasharray:none"
       inkscape:export-xdpi="20.224567"
       inkscape:export-ydpi="20.224567" />
    <g
       id="g4382"
       transform="translate(34.345187,-52.527933)"
       inkscape:export-xdpi="88.997017"
       inkscape:export-ydpi="88.997017">
      <g
         transform="matrix(0.27009425,-0.9628339,0.9628339,0.27009425,279.39953,534.68956)"
         id="g4346">
        <rect
           y="191.92632"
           x="49.850605"
           height="110.21075"
           width="9.609705"
           id="rect4348"
           style="fill:#784421;stroke:#000000;stroke-width:0.7860052" />
        <path
           sodipodi:nodetypes="ccscc"
           inkscape:connector-curvature="0"
           id="path4350"
           d="m 54.926949,137.64788 0,55.65512 -3.886252,-0.07 c -3.883186,-0.07 -7.289219,-6.25538 -7.399693,-10.22968 0,-12.89546 11.285945,-23.08859 11.285945,-45.35543 z"
           style="fill:#333333;fill-rule:evenodd;stroke:#000000;stroke-width:0.79446912px;stroke-linecap:butt;stroke-linejoin:miter;stroke-opacity:1" />
        <path
           style="fill:#808080;fill-rule:evenodd;stroke:#000000;stroke-width:0.79446912px;stroke-linecap:butt;stroke-linejoin:miter;stroke-opacity:1"
           d="m 54.908875,137.64788 0,55.65512 3.886252,-0.07 c 3.883187,-0.07 7.289219,-6.25538 7.399687,-10.22968 0,-12.89546 -11.285939,-23.08859 -11.285939,-45.35543 z"
           id="path4352"
           inkscape:connector-curvature="0"
           sodipodi:nodetypes="ccscc" />
        <path
           sodipodi:nodetypes="ccccc"
           inkscape:connector-curvature="0"
           id="path4354"
           d="m 59.4784,261.48741 11.907339,12.47975 0,34.13323 L 59.4784,295.62064 Z"
           style="fill:#c87137;stroke:#000000;stroke-width:0.4537431" />
        <path
           style="fill:#502d16;stroke:#000000;stroke-width:0.44099113"
           d="m 49.836858,261.47829 -11.243061,12.48463 0,34.14659 11.243061,-12.48463 z"
           id="path4356"
           inkscape:connector-curvature="0"
           sodipodi:nodetypes="ccccc" />
      </g>
      <g
         id="g4358"
         transform="matrix(-0.03766119,-0.99929057,0.99929057,-0.03766119,289.9859,609.40146)">
        <rect
           style="fill:#784421;stroke:#000000;stroke-width:0.7860052"
           id="rect4360"
           width="9.609705"
           height="110.21075"
           x="49.850605"
           y="191.92632" />
        <path
           style="fill:#333333;fill-rule:evenodd;stroke:#000000;stroke-width:0.79446912px;stroke-linecap:butt;stroke-linejoin:miter;stroke-opacity:1"
           d="m 54.926949,137.64788 0,55.65512 -3.886252,-0.07 c -3.883186,-0.07 -7.289219,-6.25538 -7.399693,-10.22968 0,-12.89546 11.285945,-23.08859 11.285945,-45.35543 z"
           id="path4362"
           inkscape:connector-curvature="0"
           sodipodi:nodetypes="ccscc" />
        <path
           sodipodi:nodetypes="ccscc"
           inkscape:connector-curvature="0"
           id="path4364"
           d="m 54.908875,137.64788 0,55.65512 3.886252,-0.07 c 3.883187,-0.07 7.289219,-6.25538 7.399687,-10.22968 0,-12.89546 -11.285939,-23.08859 -11.285939,-45.35543 z"
           style="fill:#808080;fill-rule:evenodd;stroke:#000000;stroke-width:0.79446912px;stroke-linecap:butt;stroke-linejoin:miter;stroke-opacity:1" />
        <path
           style="fill:#c87137;stroke:#000000;stroke-width:0.4537431"
           d="m 59.4784,261.48741 11.907339,12.47975 0,34.13323 L 59.4784,295.62064 Z"
           id="path4366"
           inkscape:connector-curvature="0"
           sodipodi:nodetypes="ccccc" />
        <path
           sodipodi:nodetypes="ccccc"
           inkscape:connector-curvature="0"
           id="path4368"
           d="m 49.836858,261.47829 -11.243061,12.48463 0,34.14659 11.243061,-12.48463 z"
           style="fill:#502d16;stroke:#000000;stroke-width:0.44099113" />
      </g>
      <g
         transform="matrix(-0.61282766,-0.79021659,0.79021659,-0.61282766,368.02519,725.6801)"
         id="g4370">
        <rect
           y="191.92632"
           x="49.850605"
           height="110.21075"
           width="9.609705"
           id="rect4372"
           style="fill:#784421;stroke:#000000;stroke-width:0.7860052" />
        <path
           sodipodi:nodetypes="ccscc"
           inkscape:connector-curvature="0"
           id="path4374"
           d="m 54.926949,137.64788 0,55.65512 -3.886252,-0.07 c -3.883186,-0.07 -7.289219,-6.25538 -7.399693,-10.22968 0,-12.89546 11.285945,-23.08859 11.285945,-45.35543 z"
           style="fill:#333333;fill-rule:evenodd;stroke:#000000;stroke-width:0.79446912px;stroke-linecap:butt;stroke-linejoin:miter;stroke-opacity:1" />
        <path
           style="fill:#808080;fill-rule:evenodd;stroke:#000000;stroke-width:0.79446912px;stroke-linecap:butt;stroke-linejoin:miter;stroke-opacity:1"
           d="m 54.908875,137.64788 0,55.65512 3.886252,-0.07 c 3.883187,-0.07 7.289219,-6.25538 7.399687,-10.22968 0,-12.89546 -11.285939,-23.08859 -11.285939,-45.35543 z"
           id="path4376"
           inkscape:connector-curvature="0"
           sodipodi:nodetypes="ccscc" />
        <path
           sodipodi:nodetypes="ccccc"
           inkscape:connector-curvature="0"
           id="path4378"
           d="m 59.4784,261.48741 11.907339,12.47975 0,34.13323 L 59.4784,295.62064 Z"
           style="fill:#c87137;stroke:#000000;stroke-width:0.4537431" />
        <path
           style="fill:#502d16;stroke:#000000;stroke-width:0.44099113"
           d="m 49.836858,261.47829 -11.243061,12.48463 0,34.14659 11.243061,-12.48463 z"
           id="path4380"
           inkscape:connector-curvature="0"
           sodipodi:nodetypes="ccccc" />
      </g>
    </g>
    <path
       style="fill:#cccccc;stroke:#000000;stroke-width:2.97663116;stroke-miterlimit:4;stroke-dasharray:none"
       d="m 544.28095,574.93559 0,1.6162 c -0.53716,32.01382 -16.76971,47.01181 -16.76971,65.88703 0.14734,5.30031 4.23498,13.22331 9.24092,14.89188 l 0,27.82744 -19.22602,-19.22602 c 3.04682,-4.52817 0.2334,-13.72137 -3.5987,-17.77258 -13.34141,-13.34141 -35.41521,-12.47539 -58.42219,-34.70508 l -1.16857,-1.16855 c 0.20219,0.20217 0.38865,0.40257 0.58719,0.60462 -0.20241,-0.19889 -0.40499,-0.38464 -0.60753,-0.58718 l 1.22088,1.21798 c 22.18062,22.9891 21.32091,45.04094 34.65275,58.37278 3.85228,3.64391 12.3468,6.35463 17.06621,3.99402 l 26.32459,26.32459 -36.10328,36.10329 -23.41481,1.2267 -35.93468,35.93468 23.41189,-1.2238 -5.65676,5.65676 10.113,10.11299 5.66839,-5.66839 -0.52033,22.24044 35.92305,-35.92016 0.52033,-22.24333 29.16459,-29.16459 0,41.19611 -15.62732,17.35399 0,50.82075 15.62732,-17.354 0,8.4648 14.30179,0 0,-8.90373 16.24647,17.02551 0,-50.80039 -16.24647,-17.02843 0,-40.35602 29.41167,29.41167 1.26739,24.20838 35.93468,35.9376 -1.26448,-24.20839 5.70036,5.70036 10.11299,-10.11298 -5.31375,-5.31376 23.01074,0.54069 -35.92014,-35.92016 -23.01075,-0.54067 -37.17591,-37.17592 26.8827,-26.87979 c 4.5288,3.04489 13.7219,0.2358 17.77257,-3.5958 13.32401,-13.32401 12.47447,-35.35758 34.61496,-58.33208 l 1.25869,-1.25867 c -0.21338,0.21338 -0.42629,0.40982 -0.63952,0.61915 0.20933,-0.21323 0.40578,-0.42612 0.61917,-0.6395 l -1.25868,1.25867 c -22.97449,22.14051 -45.00808,21.29095 -58.33209,34.61496 -3.64411,3.85249 -6.35532,12.34695 -3.99403,17.06622 l -19.67657,19.67367 0,-27.19083 c 5.35622,-1.04767 9.86793,-9.53563 10.02287,-15.1099 0,-18.85524 -16.19995,-33.84133 -16.76972,-65.78529 l 0,-1.71794 c 0,0.28279 -0.0119,0.55405 -0.0149,0.83426 -0.003,-0.28019 -0.0119,-0.55147 -0.0119,-0.83426 z"
       id="rect4198"
       inkscape:connector-curvature="0"
       inkscape:export-xdpi="81.986275"
       inkscape:export-ydpi="81.986275" />
    <g
       id="g4222"
       transform="matrix(0.24157017,0,0,0.24157017,31.366863,-76.701447)">
      <path
         inkscape:connector-curvature="0"
         id="rect4197"
         d="m 3974.2952,-236.75043 0,579.54101 2374.9434,0 -268.5704,-579.54101 -2106.373,0 z m 0,701.30273 0,579.539 2693.9492,0 -268.5722,-579.539 -2425.377,0 z"
         style="fill:#6c5353;stroke:none;stroke-width:2;stroke-miterlimit:4;stroke-dasharray:none;stroke-dashoffset:0" />
      <path
         style="fill:#cccccc;stroke:#000000;stroke-width:4.80509758;stroke-miterlimit:4;stroke-dasharray:none"
         d="m 4294.5658,-167.31488 0,2.609 c -0.8671,51.67907 -27.0709,75.889927 -27.0709,106.359687 0.2379,8.55616 6.8362,21.34605 14.9174,24.03957 l 0,44.92111 -31.036,-31.03606 c 4.9183,-7.3097 0.3767,-22.15004 -5.8093,-28.68981 -21.5368,-21.53668 -57.1699,-20.13869 -94.3095,-56.023487 l -1.8863,-1.88637 c 0.3263,0.32636 0.6273,0.64987 0.9477,0.97602 -0.3266,-0.32107 -0.6537,-0.62091 -0.9806,-0.94787 l 1.9708,1.96616 c 35.8056,37.110697 34.4178,72.708407 55.9391,94.229637 6.2186,5.88228 19.9311,10.25811002 27.5495,6.44745 l 42.4951,42.49509 -58.2806,58.2806 -37.798,1.98022 -58.0084,58.008423 37.7932,-1.97555 -9.1314,9.13156 16.3251,16.32512 9.1502,-9.15033 -0.8399,35.90216 57.9898,-57.98497 0.8399,-35.90682 47.0796,-47.079633 0,66.501803 -25.2267,28.01408 0,82.03861 25.2267,-28.01411 0,13.66451 23.087,0 0,-14.37306 26.226,27.48384 0,-82.00574 -26.226,-27.48854 0,-65.145683 47.4784,47.478503 2.0459,39.07895 58.0085,58.01312 -2.0413,-39.07896 9.2019,9.20192 16.3253,-16.32511 -8.578,-8.57786 37.1458,0.87282 -57.9851,-57.984973 -37.1455,-0.87278 -60.0121,-60.01212 43.396,-43.39134 c 7.3108,4.91529002 22.1509,0.38064 28.6897,-5.8046 21.5088,-21.5086 20.1373,-57.07682 55.8781,-94.163947 l 2.0319,-2.03184 c -0.3446,0.34446 -0.6881,0.66157 -1.0324,0.99949 0.3378,-0.34422 0.6551,-0.68789 0.9995,-1.03233 l -2.0317,2.03183 c -37.0872,35.740847 -72.6556,34.369417 -94.1641,55.878017 -5.8825,6.21897 -10.2592,19.93135 -6.4476,27.54955 l -31.7632,31.75868 0,-43.89343 c 8.6464,-1.69122 15.9295,-15.39312 16.1796,-24.39152 0,-30.43752 -26.1511,-54.629167 -27.0709,-106.195457 l 0,-2.77323 c 0,0.4565 -0.019,0.89439 -0.024,1.34673 0,-0.4523 -0.019,-0.89023 -0.019,-1.34673 z"
         id="path4199"
         inkscape:connector-curvature="0"
         inkscape:export-xdpi="81.986275"
         inkscape:export-ydpi="81.986275" />
      <path
         inkscape:connector-curvature="0"
         id="path4208"
         d="m 4302.8681,530.90388 c 0,48.6963 -54.0621,106.321 -54.0621,135.9405 0,29.61965 24.0116,53.63125 53.6311,53.63125 29.6196,0 53.6307,-24.0116 53.6307,-53.63125 0,-29.6195 -53.1997,-86.8132 -53.1997,-135.9405 z m -86.0477,136.7017 c 0,56.81385 -63.0737,124.04475 -63.0737,158.60175 0,34.557 28.0143,62.5709 62.5713,62.5709 34.557,0 62.5709,-28.0139 62.5709,-62.5709 0,-34.557 -62.0685,-101.2851 -62.0685,-158.60175 z m 157.7851,37.59985 c 0,71.5314 -79.4131,156.1778 -79.4131,199.6868 0,43.5089 35.2711,78.78 78.78,78.78 43.509,0 78.7801,-35.2711 78.7801,-78.78 0,-43.509 -78.147,-127.5224 -78.147,-199.6868 z"
         style="fill:#c83737;stroke:none;stroke-width:2;stroke-miterlimit:4;stroke-dasharray:none;stroke-dashoffset:0" />
    </g>
    <g
       id="g4228"
       transform="matrix(0.31859515,0,0,0.31859515,601.15318,456.06562)"
       inkscape:export-xdpi="73.443283"
       inkscape:export-ydpi="73.443283">
      <path
         style="fill:#536c53;stroke:none;stroke-width:2;stroke-miterlimit:4;stroke-dasharray:none;stroke-dashoffset:0"
         d="m 1202.4366,-18.557479 0,579.540959 2374.9435,0 -268.5704,-579.540959 -2106.3731,0 z m 0,701.302759 0,579.53902 2693.9493,0 -268.5722,-579.53902 -2425.3771,0 z"
         id="path4216"
         inkscape:connector-curvature="0" />
      <path
         id="path4218"
         d="m 1522.707,50.878906 0,2.607422 c -0.8671,51.679112 -27.0703,75.891532 -27.0703,106.361332 0.2379,8.5561 6.8368,21.34556 14.918,24.03906 l 0,44.91992 -31.0371,-31.03516 c 4.9183,-7.3097 0.3774,-22.14965 -5.8086,-28.68945 -21.5368,-21.5367 -57.171,-20.13864 -94.3106,-56.02344 l -1.8867,-1.88671 c 0.3263,0.3264 0.6288,0.65046 0.9492,0.97656 -0.3266,-0.321 -0.6535,-0.62232 -0.9804,-0.94922 l 1.9707,1.9668 c 35.8056,37.1107 34.4162,72.70916 55.9375,94.23046 6.2186,5.8823 19.9324,10.25797 27.5508,6.44727 l 42.4941,42.49414 -58.2793,58.28125 -37.7988,1.98047 -58.0078,58.00781 37.7929,-1.97461 -9.1308,9.13086 16.3242,16.32422 9.1504,-9.15039 -0.8399,35.90234 57.9903,-57.98437 0.8398,-35.90625 47.0801,-47.08008 0,66.50195 -25.2285,28.01368 0,82.03906 25.2285,-28.01367 0,13.66406 23.0859,0 0,-14.37305 26.2266,27.48438 0,-82.00586 -26.2266,-27.49024 0,-65.14453 47.4785,47.47852 2.0469,39.07812 58.0078,58.01367 -2.041,-39.07812 9.2012,9.20117 16.3262,-16.32617 -8.5782,-8.57617 37.1446,0.87304 -57.9844,-57.98632 -37.1445,-0.87305 -60.0137,-60.01172 43.3965,-43.39062 c 7.3108,4.9153 22.1506,0.38051 28.6894,-5.80469 21.5088,-21.5086 20.1381,-57.07686 55.8789,-94.16406 l 2.0313,-2.03125 c -0.3446,0.3444 -0.687,0.66014 -1.0313,0.99804 0.3378,-0.3442 0.6537,-0.68675 0.9981,-1.03125 l -2.0313,2.03125 c -37.0872,35.7408 -72.6555,34.37031 -94.164,55.87891 -5.8825,6.219 -10.2589,19.93063 -6.4473,27.54883 l -31.7637,31.75781 0,-43.89258 c 8.6464,-1.6912 15.9296,-15.39222 16.1797,-24.39062 0,-30.4375 -26.1505,-54.63099 -27.0703,-106.197269 l 0,-2.771485 c 0,0.4565 -0.02,0.893363 -0.025,1.345703 0,-0.4523 -0.018,-0.889203 -0.018,-1.345703 z m 8.3028,698.218754 c 0,48.6963 -54.0625,106.31995 -54.0625,135.93945 0,29.6197 24.0112,53.63086 53.6308,53.63086 29.6196,0 53.6309,-24.01116 53.6309,-53.63086 0,-29.6195 -53.1992,-86.81215 -53.1992,-135.93945 z m -86.0489,136.70117 c 0,56.8139 -63.0722,124.04457 -63.0722,158.60157 0,34.557 28.0133,62.5703 62.5703,62.5703 34.557,0 62.5723,-28.0133 62.5722,-62.5703 0,-34.557 -62.0703,-101.28487 -62.0703,-158.60157 z m 157.7852,37.59961 c 0,71.5314 -79.4121,156.17846 -79.4121,199.68746 0,43.5089 35.2704,78.7793 78.7793,78.7793 43.509,0 78.7812,-35.2704 78.7812,-78.7793 0,-43.509 -78.1484,-127.52306 -78.1484,-199.68746 z"
         style="fill:#ffffff;stroke:none;stroke-width:4.80509758;stroke-miterlimit:4;stroke-dasharray:none"
         inkscape:connector-curvature="0" />
    </g>
    <g
       id="g4261"
       transform="matrix(0.90932762,0,0,0.90932762,274.63134,-151.31422)"
       inkscape:export-xdpi="58.889614"
       inkscape:export-ydpi="58.889614">
      <path
         id="rect4240"
         d="m 1831.4277,-124.78125 c 10.6416,71.822049 20.942,143.815828 0,231.42969 83.6971,-4.3483 166.4716,-7.158008 248.5723,-8.845706 l 0,-212.193354 c -74.6298,-2.70403 -156.945,-6.11761 -248.5723,-10.39063 z m 1371.4297,0 c -403.549,0 -443.499,33.563898 -1082.8574,11.79687 l 0,210.070318 c 366.4401,-5.958713 720.1386,9.319042 1082.8574,9.562502 -50.3094,-53.923147 -15.7373,-147.023483 0,-231.42969 z"
         style="fill:#216778;stroke:none;stroke-width:2;stroke-miterlimit:4;stroke-dasharray:none;stroke-dashoffset:0"
         inkscape:connector-curvature="0" />
      <path
         id="path4253"
         d="m 1831.4277,147.96094 c 10.6416,71.82205 20.942,143.81387 0,231.42773 83.6971,-4.3483 166.4716,-7.158 248.5723,-8.8457 l 0,-212.19336 c -74.6298,-2.70402 -156.945,-6.11566 -248.5723,-10.38867 z m 1371.4297,0 c -403.549,0 -443.4989,33.56195 -1082.8574,11.79492 l 0,210.07031 c 366.4401,-5.95871 720.1386,9.31905 1082.8574,9.5625 -50.3094,-53.92315 -15.7373,-147.02153 0,-231.42773 z"
         style="fill:#a02c2c;stroke:none;stroke-width:2;stroke-miterlimit:4;stroke-dasharray:none;stroke-dashoffset:0"
         inkscape:connector-curvature="0" />
      <path
         inkscape:connector-curvature="0"
         style="fill:#ffffff;stroke:none;stroke-width:4.80509758;stroke-miterlimit:4;stroke-dasharray:none"
         d="m 1959.0153,-88.45563 0,0.977924 c -0.3253,19.38249 -10.1529,28.463468 -10.1529,39.891304 0.089,3.209003 2.5641,8.005747 5.5951,9.015961 l 0,16.847421 -11.6407,-11.639886 c 1.8447,-2.741532 0.1416,-8.307327 -2.1786,-10.760111 -8.0775,-8.077427 -21.4422,-7.553083 -35.3716,-21.011835 l -0.7076,-0.707625 c 0.1224,0.122419 0.2359,0.243966 0.3561,0.366268 -0.1226,-0.120394 -0.2451,-0.233407 -0.3677,-0.356014 l 0.7392,0.737666 c 13.4289,13.918525 12.9078,27.269891 20.9796,35.341552 2.3323,2.20618 7.4756,3.847299 10.3328,2.418078 l 15.9378,15.937624 -21.858,21.858641 -14.1767,0.742786 -21.756,21.756096 14.1745,-0.740585 -3.4247,3.424561 6.1225,6.122475 3.4318,-3.431895 -0.3149,13.465335 21.7496,-21.747302 0.3149,-13.466794 17.6577,-17.657603 0,24.941859 -9.4622,10.506656 0,30.769124 9.4622,-10.506655 0,5.124764 8.6585,0 0,-5.390673 9.8363,10.308141 0,-30.75667 -9.8363,-10.310342 0,-24.43274896 17.8069,17.80703696 0.7678,14.656428 21.756,21.758285 -0.7654,-14.656427 3.4508,3.450943 6.1233,-6.123206 -3.2172,-3.216535 13.9312,0.327441 -21.7474,-21.748031 -13.9311,-0.327443 -22.5085,-22.507662 16.276,-16.273847 c 2.7421,1.843505 8.3077,0.142713 10.7601,-2.177079 8.067,-8.066893 7.553,-21.406935 20.9578,-35.316655 l 0.7617,-0.761834 c -0.1293,0.129176 -0.2575,0.247592 -0.3867,0.374319 0.1267,-0.129093 0.245,-0.257563 0.3744,-0.386773 l -0.7619,0.761833 c -13.9098,13.404742 -27.2498,12.890736 -35.3168,20.95764 -2.2061,2.332458 -3.8475,7.475068 -2.418,10.332307 l -11.913,11.910917 0,-16.462117 c 3.2429,-0.634296 5.9744,-5.772915 6.0683,-9.14781 0,-11.415722 -9.808,-20.489601 -10.153,-39.829771 l 0,-1.039457 c 0,0.171214 -0.011,0.335059 -0.011,0.504719 0,-0.169636 -0.012,-0.333505 -0.012,-0.504719 z m 3.1139,261.8701 c 0,18.26377 -20.2765,39.87577 -20.2765,50.98469 0,11.10902 9.0056,20.11451 20.1147,20.11451 11.1088,0 20.1144,-9.00549 20.1144,-20.11451 0,-11.10892 -19.9526,-32.55928 -19.9526,-50.98469 z m -32.2731,51.2704 c 0,21.3083 -23.6555,46.52346 -23.6555,59.48423 0,12.96075 10.5065,23.46726 23.4674,23.46726 12.9607,0 23.468,-10.50651 23.4679,-23.46726 0,-12.96077 -23.2798,-37.98735 -23.2798,-59.48423 z m 59.178,14.10189 c 0,26.82817 -29.7838,58.57543 -29.7838,74.89369 0,16.31822 13.2283,29.54653 29.5465,29.54653 16.3184,0 29.5473,-13.22831 29.5473,-29.54653 0,-16.31826 -29.31,-47.82811 -29.31,-74.89369 z"
         id="path4238" />
    </g>
  </g>
</svg>
